<svg width="1677" height="492" viewBox="0 0 1677 492" fill="none" xmlns="http://www.w3.org/2000/svg">
<path d="M-34 52C63.6667 115.5 301.483 209.236 493.5 178.5C784 132 1097.5 187.5 1420.5 491" stroke="#EAEFF3" stroke-width="2" stroke-linecap="round" stroke-linejoin="round"/>
<path d="M-38 15C59.6667 78.5 297.483 172.236 489.5 141.5C780 95 1093.5 150.5 1416.5 454" stroke="#EAEFF3" stroke-width="2" stroke-linecap="round" stroke-linejoin="round"/>
<path d="M6 1C103.667 64.5 341.483 158.236 533.5 127.5C824 81 1137.5 136.5 1460.5 440" stroke="#EAEFF3" stroke-width="2" stroke-linecap="round" stroke-linejoin="round"/>
<path d="M-438 90C-315.343 187.523 -7 245.499 172 177.499C351 109.499 412.5 104 478.5 103.999C636.516 103.996 864 124 1199 351.5" stroke="#EAEFF3" stroke-width="2" stroke-linecap="round" stroke-linejoin="round"/>
<path d="M39 52C161.657 149.523 470 207.499 649 139.499C828 71.4986 889.5 66.0004 955.5 65.999C1113.52 65.9957 1341 86 1676 313.5" stroke="#EAEFF3" stroke-width="2" stroke-linecap="round" stroke-linejoin="round"/>
</svg>
